#define e26f9e333127481192a483c76efd88253KBUF6HtlBYp4VfJ_width 32
#define e26f9e333127481192a483c76efd88253KBUF6HtlBYp4VfJ_height 32
static char e26f9e333127481192a483c76efd88253KBUF6HtlBYp4VfJ_bits[] = {
  0x00, 0x00, 0x00, 0x00, 0x00, 0x00, 0x00, 0x00, 0x00, 0x00, 0x00, 0x00, 
  0x00, 0x00, 0x00, 0x00, 0x00, 0x00, 0x00, 0x00, 0x00, 0x00, 0x00, 0x00, 
  0xC0, 0x3F, 0x00, 0x00, 0x60, 0x60, 0x00, 0x03, 0x10, 0xC8, 0x00, 0x06, 
  0x18, 0x98, 0x00, 0x0C, 0x88, 0xB3, 0x60, 0x08, 0xC0, 0xA6, 0xC0, 0x08, 
  0xC0, 0xBC, 0x88, 0x18, 0x40, 0xB0, 0x88, 0x19, 0x40, 0xB0, 0x98, 0x11, 
  0xC0, 0xD1, 0x10, 0x11, 0xC0, 0x4B, 0x10, 0x11, 0x40, 0x62, 0x98, 0x11, 
  0x20, 0x22, 0x88, 0x18, 0x60, 0x32, 0xC0, 0x08, 0x60, 0x13, 0x40, 0x0C, 
  0xC0, 0x19, 0x00, 0x04, 0x90, 0x08, 0x00, 0x06, 0x10, 0x08, 0x00, 0x02, 
  0x30, 0x04, 0x00, 0x02, 0xE0, 0x07, 0x00, 0x00, 0x00, 0x00, 0x00, 0x00, 
  0x00, 0x00, 0x00, 0x00, 0x00, 0x00, 0x00, 0x00, 0x00, 0x00, 0x00, 0x00, 
  0x00, 0x00, 0x00, 0x00, 0x00, 0x00, 0x00, 0x00, };
